<?xml version="1.0" standalone="no"?>
<!DOCTYPE svg PUBLIC "-//W3C//DTD SVG 20010904//EN"
 "http://www.w3.org/TR/2001/REC-SVG-20010904/DTD/svg10.dtd">
<svg version="1.0" xmlns="http://www.w3.org/2000/svg"
 width="1000.000000pt" height="1000.000000pt" viewBox="0 0 1000.000000 1000.000000"
 preserveAspectRatio="xMidYMid meet">

<g transform="translate(0.000000,1000.000000) scale(0.100000,-0.100000)"
fill="#000000" stroke="none">
<path d="M2653 5606 c-16 -98 -33 -127 -172 -294 l-111 -132 -2 -267 -3 -267
-91 114 c-131 166 -163 219 -200 328 -19 55 -33 86 -34 71 0 -24 18 -137 36
-228 7 -32 6 -33 -15 -21 -21 11 -22 10 -16 -27 12 -66 82 -268 120 -344 48
-95 111 -192 162 -249 l41 -45 22 20 c36 33 116 146 158 225 54 99 96 207 127
321 31 117 32 128 5 104 -25 -22 -25 -21 0 118 20 115 40 313 40 402 0 38 -3
46 -12 37 -22 -22 -28 -12 -29 46 -1 31 -4 82 -7 112 l-7 55 -12 -79z"/>
<path d="M6592 5419 c-268 -35 -476 -222 -537 -482 -22 -92 -19 -257 5 -353
32 -125 73 -199 159 -284 126 -126 255 -174 461 -174 200 1 328 50 451 173
128 128 183 270 183 476 1 98 -4 133 -23 195 -87 280 -277 431 -571 453 -36 3
-94 1 -128 -4z m216 -227 c233 -73 341 -349 241 -617 -29 -78 -111 -164 -191
-201 -58 -26 -72 -29 -178 -29 -96 0 -124 4 -171 23 -160 64 -246 224 -237
437 4 88 9 110 38 173 50 109 151 196 257 221 66 16 177 12 241 -7z"/>
<path d="M3680 4775 l0 -625 120 0 120 0 0 250 0 250 305 0 305 0 0 -250 0
-250 120 0 120 0 0 625 0 625 -120 0 -120 0 0 -265 0 -265 -305 0 -305 0 0
265 0 265 -120 0 -120 0 0 -625z"/>
<path d="M4920 4775 l0 -625 115 0 115 0 0 185 0 185 208 0 c226 0 293 10 383
56 160 81 254 283 216 465 -19 96 -49 157 -104 220 -56 61 -115 97 -202 121
-57 16 -107 18 -398 18 l-333 0 0 -625z m651 395 c61 -17 102 -52 132 -110 57
-111 18 -245 -88 -299 -48 -25 -57 -26 -257 -30 l-208 -3 0 226 0 226 193 0
c105 0 208 -5 228 -10z"/>
<path d="M7440 4775 l0 -625 115 0 115 0 0 185 0 185 170 0 169 0 121 -169
c66 -93 122 -176 125 -183 3 -8 -51 -94 -125 -196 -71 -101 -130 -185 -130
-187 0 -3 55 -5 123 -5 l123 0 70 100 c38 54 71 99 74 99 3 0 40 -49 83 -109
l78 -110 52 1 c29 1 83 4 120 8 l69 6 -132 184 c-73 102 -134 189 -136 196 -3
6 46 83 109 170 62 88 116 166 120 173 6 9 -19 12 -115 12 l-124 0 -60 -85
c-32 -47 -61 -85 -64 -85 -7 1 -150 206 -150 216 0 5 21 20 46 33 25 14 65 46
89 73 117 131 146 329 72 492 -32 69 -111 154 -175 189 -93 51 -148 57 -504
57 l-328 0 0 -625z m665 394 c60 -16 129 -92 145 -158 25 -106 -20 -204 -120
-257 -31 -17 -59 -19 -245 -19 l-210 0 -3 223 -2 222 197 0 c112 0 215 -5 238
-11z"/>
<path d="M2032 5210 c0 -14 2 -19 5 -12 2 6 2 18 0 25 -3 6 -5 1 -5 -13z"/>
<path d="M1890 4631 c45 -64 79 -157 96 -264 10 -59 15 -110 11 -113 -3 -4
-61 45 -129 108 l-123 115 -128 6 c-127 7 -166 17 -209 55 -33 28 -18 2 23
-43 22 -24 38 -49 35 -54 -8 -13 119 -119 212 -179 55 -34 69 -48 56 -52 -12
-5 6 -18 62 -47 104 -54 225 -91 323 -99 l80 -7 -5 39 c-9 60 -30 144 -53 204
-30 80 -111 215 -121 201 -5 -8 -30 17 -74 73 -64 82 -101 119 -56 57z"/>
<path d="M2788 4569 c-45 -59 -64 -76 -68 -64 -7 20 -86 -112 -124 -209 -26
-65 -55 -181 -56 -218 0 -23 48 -24 153 -4 124 24 337 117 308 135 -7 5 16 26
61 56 102 67 219 165 212 176 -3 5 16 35 43 66 l48 56 -45 -32 c-51 -36 -123
-50 -248 -51 l-72 0 -91 -82 c-50 -46 -110 -100 -135 -121 l-44 -39 5 29 c3
15 12 71 21 123 15 95 44 175 84 231 44 61 8 26 -52 -52z"/>
<path d="M2349 4168 c-7 -18 -34 -60 -60 -94 -62 -80 -87 -128 -95 -179 -11
-79 30 -166 97 -200 36 -19 122 -19 159 0 65 34 106 129 91 210 -10 51 -20 71
-98 179 -34 48 -63 94 -63 102 0 25 -17 15 -31 -18z"/>
<path d="M3526 3982 c-10 -17 -66 -176 -66 -189 0 -23 18 -14 24 12 6 22 12
25 50 25 36 0 45 -4 54 -26 7 -14 16 -22 22 -19 5 3 -4 40 -22 88 -16 45 -33
90 -35 100 -6 18 -18 23 -27 9z m29 -94 c6 -25 5 -28 -19 -28 -29 0 -31 7 -14
45 13 29 23 23 33 -17z"/>
<path d="M3740 3884 c0 -67 4 -103 10 -99 6 3 10 22 10 41 0 31 3 34 28 34 43
0 72 26 72 65 0 42 -29 65 -82 65 l-38 0 0 -106z m91 60 c19 -23 -1 -48 -40
-52 -30 -3 -31 -2 -31 32 0 33 2 36 29 36 16 0 34 -7 42 -16z"/>
<path d="M3910 3905 c0 -72 3 -88 20 -105 27 -27 66 -25 95 5 22 21 25 33 25
99 0 41 -4 78 -10 81 -6 4 -10 -19 -10 -62 0 -78 -17 -113 -55 -113 -34 0 -45
27 -45 109 0 41 -4 71 -10 71 -6 0 -10 -35 -10 -85z"/>
<path d="M4104 3977 c-3 -8 -4 -54 -2 -103 l3 -89 49 -3 c35 -2 53 2 67 14 23
21 25 67 4 84 -11 9 -13 16 -5 24 14 14 13 59 -2 74 -17 17 -107 16 -114 -1z
m96 -41 c0 -24 -16 -36 -51 -36 -14 0 -19 7 -19 30 0 28 3 30 35 30 30 0 35
-3 35 -24z m-4 -64 c17 -12 23 -39 11 -51 -6 -6 -26 -11 -44 -11 -31 0 -33 2
-33 35 0 32 3 35 28 35 15 0 32 -4 38 -8z"/>
<path d="M4290 3885 l0 -105 55 0 c42 0 55 3 55 15 0 11 -12 15 -45 15 l-45 0
0 90 c0 53 -4 90 -10 90 -6 0 -10 -42 -10 -105z"/>
<path d="M4447 3984 c-4 -4 -7 -52 -7 -106 0 -75 3 -99 13 -96 8 3 13 34 15
98 3 86 -4 120 -21 104z"/>
<path d="M4539 3961 c-63 -63 -22 -181 64 -181 19 0 40 7 47 15 14 17 11 18
-40 15 -64 -2 -94 66 -56 126 16 23 23 26 57 21 44 -6 60 6 30 22 -35 19 -71
12 -102 -18z"/>
<path d="M4783 3964 c-15 -23 -15 -29 -2 -52 8 -14 29 -30 47 -37 19 -6 38
-18 43 -27 18 -32 -57 -58 -77 -27 -8 14 -24 10 -24 -6 0 -35 85 -48 113 -17
20 22 22 65 5 79 -7 6 -26 15 -42 20 -41 13 -57 40 -33 58 14 10 26 11 48 3
36 -12 46 -6 24 16 -27 26 -81 21 -102 -10z"/>
<path d="M4950 3885 l0 -105 55 0 c42 0 55 3 55 15 0 11 -12 15 -46 15 -45 0
-45 0 -42 33 3 29 6 32 41 35 50 4 48 22 -3 22 -38 0 -40 2 -40 30 0 29 2 30
45 30 33 0 45 4 45 15 0 12 -13 15 -55 15 l-55 0 0 -105z"/>
<path d="M5110 3885 c0 -63 4 -105 10 -105 6 0 10 18 10 40 0 39 1 40 33 40
39 0 57 -15 57 -46 0 -23 16 -41 27 -30 3 3 -1 25 -8 48 -12 35 -12 48 -2 68
26 52 -7 90 -79 90 l-48 0 0 -105z m105 56 c8 -27 -4 -50 -31 -57 -39 -10 -54
2 -54 41 0 34 1 35 39 35 30 0 41 -5 46 -19z"/>
<path d="M5280 3978 c0 -20 72 -198 80 -198 8 0 80 181 80 201 0 6 -5 9 -12 7
-6 -2 -23 -37 -36 -76 -13 -40 -27 -72 -30 -72 -4 0 -20 34 -35 75 -25 67 -47
96 -47 63z"/>
<path d="M5487 3984 c-4 -4 -7 -52 -7 -106 0 -75 3 -99 13 -96 8 3 13 34 15
98 3 86 -4 120 -21 104z"/>
<path d="M5579 3961 c-63 -63 -22 -181 64 -181 19 0 40 7 47 15 14 17 11 18
-40 15 -64 -2 -94 66 -56 126 16 23 23 26 57 21 44 -6 60 6 30 22 -35 19 -71
12 -102 -18z"/>
<path d="M5740 3885 l0 -105 55 0 c42 0 55 3 55 15 0 11 -12 15 -46 15 -45 0
-45 0 -42 33 3 29 6 32 41 35 50 4 48 22 -3 22 -38 0 -40 2 -40 30 0 29 2 30
45 30 33 0 45 4 45 15 0 12 -13 15 -55 15 l-55 0 0 -105z"/>
<path d="M6005 3966 c-67 -67 -29 -186 59 -186 35 0 64 15 53 27 -4 4 -25 6
-46 4 -46 -3 -71 24 -71 76 0 49 32 77 81 70 40 -5 48 0 27 21 -21 21 -77 14
-103 -12z"/>
<path d="M6176 3959 c-19 -23 -26 -42 -26 -74 0 -107 118 -146 165 -55 55 106
-65 218 -139 129z m108 -21 c35 -50 9 -128 -43 -128 -37 0 -63 30 -63 75 0 20
8 45 18 56 24 26 69 25 88 -3z"/>
<path d="M6377 3984 c-11 -11 -8 -192 3 -199 6 -4 10 20 10 64 0 39 3 71 8 71
4 0 17 -18 30 -40 12 -22 26 -40 30 -40 5 0 19 19 33 43 l24 42 5 -68 c3 -37
10 -67 15 -67 13 0 19 180 6 193 -6 6 -23 -11 -46 -48 l-37 -58 -27 47 c-33
55 -45 69 -54 60z"/>
<path d="M6600 3885 c0 -63 4 -105 10 -105 6 0 10 18 10 40 0 38 1 40 33 40
38 0 50 7 66 38 25 48 -10 92 -75 92 l-44 0 0 -105z m95 40 c0 -27 -3 -30 -37
-33 -38 -3 -38 -3 -38 33 0 36 0 36 38 33 34 -3 37 -6 37 -33z"/>
<path d="M6776 3892 c-20 -54 -36 -102 -36 -105 0 -16 18 -5 28 18 10 21 18
25 56 25 38 0 45 -3 50 -25 7 -26 26 -35 26 -12 0 22 -67 191 -78 195 -5 1
-26 -42 -46 -96z m63 7 c6 -18 11 -34 11 -35 0 -2 -14 -4 -31 -4 -26 0 -30 3
-24 18 4 9 10 25 12 35 8 26 20 21 32 -14z"/>
<path d="M6940 3885 c0 -121 18 -144 22 -29 l3 75 53 -76 c29 -41 57 -73 62
-70 13 8 13 205 0 205 -5 0 -10 -35 -12 -77 l-3 -78 -54 78 c-29 42 -57 77
-62 77 -5 0 -9 -47 -9 -105z"/>
<path d="M7130 3975 c0 -8 14 -34 30 -57 24 -32 30 -51 30 -90 0 -26 5 -48 10
-48 6 0 10 21 10 48 0 36 7 58 30 92 16 25 30 51 30 58 0 24 -20 11 -42 -28
-13 -22 -25 -40 -28 -40 -3 0 -16 18 -30 40 -26 42 -40 51 -40 25z"/>
</g>
</svg>
