<svg version="1.1" id="Layer_1" xmlns="http://www.w3.org/2000/svg" xmlns:xlink="http://www.w3.org/1999/xlink" x="0px" y="0px"
	 width="100%" viewBox="0 0 992 992" enable-background="new 0 0 992 992" xml:space="preserve">
<path fill="#000000" opacity="1.000000" stroke="none" 
	d="
M408.545654,633.796265 
	C402.743713,634.484985 399.268616,630.601807 395.532928,627.934814 
	C388.397461,622.840820 380.907196,624.574951 373.117401,624.944214 
	C374.017181,631.140564 383.546722,626.358582 382.711090,633.781677 
	C380.765198,635.030945 378.561493,634.282288 376.485260,634.283691 
	C293.329559,634.341125 210.173859,634.358704 127.018135,634.374512 
	C119.644852,634.375916 119.643333,634.354614 119.643478,627.035645 
	C119.645126,543.045288 119.646500,459.054962 119.650627,375.064606 
	C119.650986,367.665192 119.659744,367.650391 126.929741,367.650177 
	C376.234375,367.642517 625.539001,367.637482 874.843628,367.635010 
	C882.314026,367.634918 882.333618,367.649750 882.334290,375.329803 
	C882.341919,459.320190 882.344177,543.310608 882.343567,627.300964 
	C882.343506,634.382751 882.328613,634.386230 875.229004,634.389404 
	C845.732422,634.402466 816.235840,634.413391 786.739258,634.424805 
	C783.973877,634.425903 781.208435,634.425049 778.350342,633.805176 
	C782.484558,633.172852 785.264526,630.064514 788.962769,628.728577 
	C792.154724,627.575500 797.142944,627.051331 796.382812,621.542419 
	C794.277405,620.293213 791.945374,623.994934 790.857544,620.992432 
	C790.086975,618.865295 789.956787,616.499634 792.786743,614.641846 
	C795.914612,612.588562 794.513794,607.717651 790.213562,604.237976 
	C787.481628,602.027344 784.178894,601.442139 780.839355,601.424316 
	C765.174927,601.340820 749.509338,601.430664 733.845337,601.311951 
	C731.109558,601.291260 729.746948,602.101013 728.732056,604.768433 
	C727.567505,607.829285 725.324158,610.465149 723.985779,613.479370 
	C722.973267,615.759827 722.627319,618.468567 724.611816,620.517578 
	C726.693298,622.666687 729.737732,622.164429 732.350647,622.352234 
	C733.544861,622.438049 734.890442,620.824097 734.235474,618.842712 
	C732.395020,618.373596 730.533569,617.809143 728.633850,617.443481 
	C727.101685,617.148560 726.151855,616.324036 726.078247,614.837708 
	C725.992615,613.110168 727.505798,612.803162 728.754639,612.377747 
	C733.363586,610.807495 737.765869,610.386719 741.420227,614.682007 
	C740.502014,617.085083 738.455566,617.938354 735.169250,619.009827 
	C742.116028,624.658569 749.667664,624.118835 756.885986,625.019287 
	C764.110596,625.920471 771.212463,625.873718 778.366150,623.720520 
	C777.908325,626.920288 771.965088,631.413818 768.200378,632.219727 
	C747.060242,636.745544 725.675476,633.906494 704.423218,633.952881 
	C699.599060,633.963379 692.030212,633.836731 690.496521,625.775696 
	C690.382019,625.173767 688.515625,624.589661 687.438477,624.539795 
	C682.160217,624.295837 676.732117,622.938049 673.547852,629.633179 
	C671.973206,632.944214 668.372864,634.573975 664.023254,634.485718 
	C649.541870,634.192139 635.051697,634.331299 620.564941,634.288574 
	C619.765991,634.286255 618.967407,634.139832 618.108765,633.739380 
	C625.056519,631.258667 632.297424,629.687256 639.214111,625.938416 
	C636.595154,623.646973 634.124878,624.742493 631.758972,624.741333 
	C628.227478,624.739563 624.843750,625.635315 621.110779,624.626648 
	C615.709473,623.167053 613.517761,625.638855 613.873474,631.640808 
	C604.574524,630.956665 595.489929,632.524658 586.319580,633.638794 
	C579.700134,634.443115 572.866272,634.209961 566.075684,633.521912 
	C558.339478,632.738098 550.786072,632.415771 545.320740,625.677734 
	C544.070740,624.136597 541.629150,624.415710 539.614258,624.415405 
	C505.480499,624.409302 471.345764,624.263367 437.213715,624.500122 
	C430.215149,624.548706 423.054352,623.883789 415.602600,625.846313 
	C419.270081,630.469360 423.840851,629.291748 428.565369,628.928345 
	C427.871033,630.820312 427.327789,632.300537 426.701721,634.006531 
	C420.819824,634.295715 414.879608,634.589417 408.545654,633.796265 
M207.131195,441.210205 
	C205.910690,444.084930 206.457230,447.120056 206.309448,450.093994 
	C206.253708,451.215485 206.535599,453.230988 205.444473,453.174744 
	C200.838730,452.937408 202.300842,456.292755 202.398804,458.296417 
	C203.206955,474.827393 204.768585,491.286133 208.151398,507.880829 
	C204.617844,508.145599 203.861710,509.691833 205.052185,512.864136 
	C206.266739,516.100586 206.651627,519.637512 207.623459,522.977783 
	C212.828918,540.869019 220.416214,557.588745 232.746262,571.774109 
	C237.510468,577.255188 238.984604,577.001343 243.583984,571.383118 
	C257.574005,554.294250 265.728638,534.486206 270.529694,513.149292 
	C270.865112,511.658539 271.720520,509.494476 269.738495,508.652954 
	C267.158752,507.557678 267.994720,505.994812 268.381592,504.179749 
	C271.498566,489.554932 272.289490,474.646729 273.589203,459.807251 
	C273.839111,456.953827 274.907135,453.365967 270.433350,452.140930 
	C269.972443,452.014709 269.835419,450.359894 269.714081,449.393555 
	C268.683716,441.188354 267.855927,432.953674 266.628021,424.778839 
	C265.867859,419.717834 266.142334,413.064484 263.076538,410.100494 
	C257.532349,404.740479 256.957733,397.683014 253.604477,391.717316 
	C251.239471,387.509796 248.879669,383.329132 246.084290,379.396759 
	C244.993744,377.862610 243.755280,376.630219 241.708954,376.430450 
	C235.475616,375.821930 229.100662,379.181061 226.095337,384.823883 
	C222.813248,390.986389 219.151169,397.083435 217.532425,403.867920 
	C216.612549,407.723328 212.189835,408.054657 211.583054,411.836334 
	C210.061890,421.316772 207.513641,430.637421 207.131195,441.210205 
M848.746643,516.307983 
	C850.532227,509.494812 851.024170,502.635651 849.593445,495.683105 
	C847.733826,486.646423 843.731689,478.592010 837.071655,472.322479 
	C828.772217,464.509735 818.245850,460.818604 807.095703,460.493896 
	C788.122009,459.941315 769.120300,460.350006 750.130371,460.355499 
	C746.929321,460.356415 745.274048,461.662354 745.281067,465.161072 
	C745.355042,501.974915 745.345764,538.788940 745.353821,575.602905 
	C745.354248,577.490173 745.578918,579.308716 747.158752,580.581299 
	C750.964539,583.646851 755.584534,584.103699 759.913025,583.020081 
	C765.655945,581.582336 768.439392,577.618286 768.569153,572.235901 
	C768.713684,566.242004 768.767334,560.240356 768.628723,554.247375 
	C768.548096,550.759460 769.992981,549.562866 773.385925,549.619080 
	C781.712463,549.757202 790.043457,549.698730 798.371704,549.616333 
	C800.744568,549.592896 802.329712,550.331482 803.752747,552.387451 
	C810.364197,561.938965 817.032837,571.457886 823.970581,580.772827 
	C826.467224,584.124817 825.983154,586.478394 823.585327,589.540955 
	C820.325745,593.704407 817.254456,598.044983 816.589722,603.645081 
	C816.046875,608.218506 817.986633,611.561096 821.413330,613.898865 
	C824.643677,616.102661 828.199219,615.132141 831.250244,613.039307 
	C832.870361,611.928040 834.240662,610.411621 835.590759,608.954956 
	C840.283936,603.891357 840.261841,603.870850 844.695435,609.437561 
	C849.040771,614.893555 854.086853,616.220581 858.431763,613.050049 
	C864.043213,608.955322 865.359314,602.692322 861.731445,597.145203 
	C859.910767,594.361328 858.190002,591.486145 856.112000,588.903259 
	C853.583618,585.760620 853.944946,583.134827 856.277039,580.016235 
	C859.455566,575.765625 862.300415,571.252014 865.091736,566.729797 
	C867.124268,563.436890 868.419556,559.855713 868.047424,555.835388 
	C867.719421,552.291260 865.997803,550.672729 862.327759,550.266846 
	C855.096375,549.467041 849.278198,550.927185 845.883179,558.093994 
	C844.975220,560.010620 843.406616,561.615845 842.129761,563.355591 
	C840.473938,565.611694 839.153259,565.401672 837.582031,563.078613 
	C834.512268,558.539917 831.272034,554.111694 827.979858,549.729675 
	C825.797607,546.825073 825.536072,544.894043 829.226074,542.678833 
	C839.021179,536.798584 845.567993,528.219910 848.746643,516.307983 
M711.033813,574.550476 
	C716.008484,569.637817 720.851318,564.702209 724.321472,558.453613 
	C731.095703,546.255615 733.276184,533.217651 732.696106,519.483704 
	C731.791077,498.058807 723.461487,480.491211 705.338684,468.520782 
	C690.826111,458.934937 674.629700,456.513428 657.550842,459.353729 
	C638.762146,462.478455 624.102905,471.898560 614.124878,488.145142 
	C604.646118,503.578888 602.163757,520.526184 605.558533,538.065491 
	C609.428223,558.058350 619.707275,573.687866 638.706238,582.771606 
	C651.344788,588.814209 664.721375,589.598877 678.216125,588.292786 
	C690.155273,587.137207 701.173950,582.916321 711.033813,574.550476 
M393.682190,479.503723 
	C393.680328,475.337524 393.565735,471.167480 393.709015,467.006287 
	C393.846008,463.027954 392.281189,461.123383 388.137695,461.296143 
	C383.978638,461.469604 379.780060,461.632324 375.647247,461.260895 
	C370.436584,460.792603 369.202423,462.989655 369.225647,467.893829 
	C369.399109,504.556213 369.319366,541.219788 369.321045,577.882996 
	C369.321106,578.882751 369.326965,579.883118 369.361694,580.882141 
	C369.466095,583.886047 371.010529,585.523132 374.033386,585.581665 
	C378.031494,585.659180 382.031891,585.710022 386.030182,585.668274 
	C392.118652,585.604736 393.636719,584.089294 393.661804,577.888550 
	C393.711670,565.556580 393.789185,553.222656 393.613495,540.893005 
	C393.558868,537.058228 394.742310,535.578796 398.727386,535.612671 
	C415.557739,535.755981 432.391266,535.744080 449.221191,535.561890 
	C453.173157,535.519165 454.444122,536.867126 454.387512,540.766907 
	C454.206055,553.263000 454.278717,565.763855 454.352783,578.262207 
	C454.385376,583.765686 456.102173,585.461853 461.476532,585.620056 
	C464.473846,585.708374 467.476440,585.701538 470.474976,585.646973 
	C476.007446,585.546143 477.634460,584.040100 477.641327,578.448486 
	C477.686890,541.452148 477.637604,504.455750 477.692291,467.459503 
	C477.698486,463.281555 476.013550,461.244629 471.759918,461.352539 
	C468.262543,461.441254 464.760681,461.336151 461.261536,461.376465 
	C455.039398,461.448090 454.346008,462.116730 454.331635,468.267395 
	C454.300873,481.432739 454.156494,494.601166 454.400269,507.761963 
	C454.482727,512.214905 452.940826,513.483521 448.626984,513.429016 
	C432.131104,513.220764 415.630219,513.235352 399.133392,513.396423 
	C395.078735,513.435974 393.509552,512.196472 393.618622,507.997925 
	C393.856598,498.838409 393.685486,489.668274 393.682190,479.503723 
M516.672180,556.585388 
	C516.778076,549.679077 516.781006,549.800049 523.522461,549.635986 
	C535.148193,549.353333 546.762024,550.027405 558.408203,548.762573 
	C584.891541,545.886353 601.887390,522.659363 596.996155,496.061707 
	C592.572083,472.004364 574.188232,461.121521 552.315613,460.459778 
	C535.010254,459.936249 517.676392,460.334778 500.355255,460.363159 
	C493.143677,460.374969 492.352783,461.171967 492.350739,468.419678 
	C492.342773,496.733124 492.369324,525.046570 492.375641,553.359985 
	C492.377502,561.687378 492.293304,570.015259 492.365387,578.341919 
	C492.412689,583.804871 494.105927,585.456604 499.573669,585.599121 
	C503.069061,585.690308 506.576385,585.485779 510.063873,585.677490 
	C514.870544,585.941772 516.675537,583.515198 516.656799,579.053955 
	C516.626648,571.892517 516.662781,564.730835 516.672180,556.585388 
M320.196259,565.672974 
	C325.219452,562.445679 327.977356,557.376648 331.560638,552.828735 
	C339.162354,543.180542 346.479248,533.739380 349.889496,521.643738 
	C351.184174,517.051758 353.322815,512.682251 354.069305,507.885040 
	C354.665070,504.056519 352.876740,501.681244 349.290833,502.569672 
	C337.988831,505.369965 326.326050,507.139923 315.971405,512.934692 
	C313.237000,514.464966 310.494171,516.219360 308.289581,518.408813 
	C303.282684,523.381531 295.317719,523.582031 291.008423,529.752441 
	C287.990967,534.073059 284.319458,537.957214 280.757782,541.870422 
	C278.226715,544.651306 276.457855,547.759766 272.375671,549.593201 
	C268.282410,551.431641 266.729279,557.137634 264.465485,561.379089 
	C259.586548,570.520325 255.996689,580.077148 255.302246,590.574219 
	C255.045517,594.455078 256.948853,595.840332 260.323669,595.501526 
	C273.850677,594.143616 286.525726,590.176636 298.510925,583.610046 
	C301.877441,581.765625 302.380493,578.094604 305.458160,576.214844 
	C310.401459,573.195557 314.959442,569.545227 320.196259,565.672974 
M190.222565,536.259583 
	C188.970306,534.716003 187.832687,533.059265 186.442383,531.652039 
	C183.364166,528.536316 181.142059,523.924561 176.580276,523.212463 
	C174.472214,522.883362 172.744766,522.411499 171.450043,521.152771 
	C160.471954,510.480316 146.246246,507.206360 132.113541,503.795532 
	C128.230408,502.858368 124.554268,505.789673 124.410515,509.631348 
	C124.255623,513.770508 124.636269,517.819458 126.006744,521.877014 
	C129.259659,531.508057 133.007431,540.828918 140.381042,548.110474 
	C143.639297,551.328064 144.892059,555.851868 147.598816,559.048035 
	C151.483368,563.635010 156.991348,566.867615 161.887756,570.570679 
	C165.577560,573.361084 170.333786,575.321045 172.851761,578.893555 
	C174.781708,581.631897 176.768311,583.500793 179.492355,584.939880 
	C189.885284,590.430664 200.882568,593.781128 212.616486,595.121399 
	C219.650040,595.924866 221.908127,594.445251 220.508575,587.611206 
	C218.197128,576.324219 214.111755,565.757751 208.304077,555.662231 
	C204.936127,549.807617 197.885864,548.239746 195.126099,542.103088 
	C194.213242,540.073181 192.231506,538.523926 190.222565,536.259583 
M234.675339,585.240967 
	C233.794708,587.219482 232.509491,588.924377 231.283157,590.702759 
	C226.564911,597.544983 220.087952,603.371033 219.993561,612.790405 
	C219.921341,619.998779 222.494995,622.614746 229.508331,621.059631 
	C235.599899,619.708801 241.375595,617.195740 247.984055,617.945740 
	C254.812881,618.720642 256.942657,615.705383 255.387222,608.910461 
	C255.056870,607.467285 254.677979,605.927673 253.888184,604.714600 
	C248.690933,596.731934 243.375031,588.826538 238.130585,580.945190 
	C236.138168,581.856995 235.839386,583.447388 234.675339,585.240967 
M367.624237,622.398315 
	C370.289581,617.975647 366.701141,617.391602 364.014465,615.978516 
	C362.433258,619.650818 363.593079,621.627686 367.624237,622.398315 
z"/>
<path fill="#000000" opacity="1.000000" stroke="none" 
	d="
M790.998718,527.329590 
	C784.680420,527.327209 778.859741,527.233948 773.043762,527.357727 
	C769.872131,527.425232 768.596863,526.209717 768.626648,522.972290 
	C768.733459,511.335907 768.712952,499.697479 768.620483,488.060760 
	C768.595642,484.931366 769.697083,483.579895 772.971375,483.609009 
	C784.275208,483.709625 795.584167,483.439423 806.884644,483.655609 
	C816.363953,483.836914 824.627197,491.938934 826.218506,502.047516 
	C827.771851,511.914734 822.086365,521.762451 813.153015,525.460938 
	C806.058228,528.398193 798.727539,526.896423 790.998718,527.329590 
z"/>
<path fill="#000000" opacity="1.000000" stroke="none" 
	d="
M687.057922,563.387329 
	C677.336792,567.104797 667.744263,568.313904 657.954224,565.805542 
	C645.393005,562.586975 636.381104,555.138794 631.586609,542.885193 
	C626.103943,528.872559 626.107971,514.912720 632.827271,501.406006 
	C638.981445,489.035034 649.386658,482.358551 663.095276,480.580933 
	C693.578918,476.628143 709.070679,499.693420 709.329529,522.640625 
	C709.527832,540.221008 703.674194,554.542175 687.057922,563.387329 
z"/>
<path fill="#000000" opacity="1.000000" stroke="none" 
	d="
M520.185791,527.304199 
	C517.220581,527.276855 516.707092,525.681458 516.705566,523.622498 
	C516.696716,511.624634 516.668396,499.626740 516.664001,487.628876 
	C516.663330,485.703644 516.878296,483.728790 519.432861,483.753906 
	C532.239258,483.879791 545.134277,482.496338 557.826843,484.390869 
	C567.507446,485.835846 574.090027,495.183746 574.166321,505.437469 
	C574.235962,514.799805 567.459900,523.733215 558.535278,526.301392 
	C552.465454,528.048035 546.292236,527.160767 540.164551,527.301453 
	C533.669067,527.450562 527.167480,527.328918 520.185791,527.304199 
z"/>
</svg>